<svg viewBox="0 0 50 50" fill="none"
    xmlns="http://www.w3.org/2000/svg">
    <g clip-path="url(#clip0_133_4)">
        <path d="M50 25C50 11.1929 38.8071 0 25 0C11.1929 0 0 11.1929 0 25C0 38.8071 11.1929 50 25 50C38.8071 50 50 38.8071 50 25Z" fill="#1A1A1A"/>
        <path d="M50 25C50 11.1929 38.8071 0 25 0C11.1929 0 0 11.1929 0 25C0 38.8071 11.1929 50 25 50C38.8071 50 50 38.8071 50 25Z" fill="url(#paint0_linear_133_4)" fill-opacity="0.5"/>
        <path d="M27.8711 40.7097C25.5251 41.1238 23.3192 41.0949 21.2534 40.623C19.1808 40.1126 17.3263 39.2649 15.6901 38.0799C14.047 36.8563 12.6968 35.3819 11.6394 33.6566C10.5753 31.8927 9.85605 29.9484 9.48179 27.8237C8.97822 24.9651 9.15005 22.2263 9.99728 19.6072C10.883 16.9813 12.3729 14.7467 14.4671 12.9033C16.5997 11.0532 19.2428 9.84977 22.3964 9.29317C25.5885 8.72977 28.4675 8.97841 31.0336 10.0391C33.5929 11.0611 35.6954 12.6418 37.3412 14.781C39.0254 16.9134 40.1091 19.351 40.5922 22.0938C40.6671 22.5187 40.7815 23.3807 40.7955 23.5049C40.8413 23.9128 40.55 24.4911 40.1476 24.5621L17.8145 28.5039C17.2852 28.5973 16.9467 29.1283 17.1276 29.6369C17.5891 30.9343 18.2392 32.0556 19.078 33.0009C20.1487 34.1264 21.4024 34.9407 22.8393 35.4439C24.2762 35.9471 25.7445 36.0663 27.2444 35.8016C28.9366 35.5029 30.4419 34.819 31.7605 33.7498C32.8595 32.8425 33.6107 31.8251 34.0141 30.6975C34.1716 30.2572 34.5869 29.9408 35.0509 29.9852L39.091 30.3713C39.6535 30.4251 40.0363 30.9743 39.8421 31.5069C39.3875 32.7544 38.7142 33.942 37.8221 35.0698C36.7187 36.4595 35.3244 37.6615 33.6394 38.6759C31.9475 39.6517 30.0248 40.3296 27.8711 40.7097ZM15.8437 23.3591C15.847 23.8989 16.3466 24.282 16.8759 24.1886L32.6736 21.4003C33.2029 21.3069 33.5416 20.7757 33.358 20.2681C32.8917 18.9785 32.2265 17.8796 31.3625 16.9714C30.3304 15.8392 29.0958 15.0214 27.659 14.5183C26.2605 14.0083 24.7729 13.8924 23.1961 14.1708C21.6578 14.4423 20.2995 15.0604 19.1212 16.0252C17.9814 16.9831 17.1199 18.1708 16.5368 19.5881C16.0664 20.7318 15.8353 21.9888 15.8437 23.3591Z" fill="#F7F7F7"/>
    </g>
    <defs>
        <linearGradient id="paint0_linear_133_4" x1="25" y1="0" x2="25" y2="50" gradientUnits="userSpaceOnUse">
            <stop stop-color="#292929"/>
            <stop offset="1" stop-color="#1A1A1A" stop-opacity="0"/>
        </linearGradient>
        <clipPath id="clip0_133_4">
            <rect width="50" height="50" fill="white"/>
        </clipPath>
    </defs>
</svg>
