<svg width="100" height="100" viewBox="0 0 100 100" fill="none" xmlns="http://www.w3.org/2000/svg">
  <g clip-path="url(#clip0_103_7013)">
    <path
      d="M100 50C100 22.3858 77.6142 0 50 0C22.3858 0 0 22.3858 0 50C0 77.6142 22.3858 100 50 100C77.6142 100 100 77.6142 100 50Z"
      fill="#1A1A1A" />
    <path
      d="M100 50C100 22.3858 77.6142 0 50 0C22.3858 0 0 22.3858 0 50C0 77.6142 22.3858 100 50 100C77.6142 100 100 77.6142 100 50Z"
      fill="url(#paint0_linear_103_7013)" fill-opacity="0.5" />
    <path
      d="M55.7417 81.4194C51.0497 82.2476 46.6379 82.1898 42.5063 81.246C38.3611 80.2252 34.6521 78.5298 31.3797 76.1598C28.0935 73.7126 25.3931 70.7638 23.2783 67.3132C21.1501 63.7854 19.7116 59.8968 18.9631 55.6474C17.9559 49.9302 18.2996 44.4526 19.9941 39.2144C21.7655 33.9626 24.7453 29.4934 28.9337 25.8066C33.1989 22.1064 38.4851 19.6995 44.7923 18.5863C51.1765 17.4595 56.9345 17.9568 62.0667 20.0782C67.1853 22.1222 71.3903 25.2836 74.6819 29.562C78.0503 33.8268 80.2177 38.702 81.1839 44.1876C81.3337 45.0374 81.5625 46.7614 81.5905 47.0098C81.6821 47.8256 81.0995 48.9822 80.2947 49.1242L35.6285 57.0078C34.5699 57.1946 33.8929 58.2566 34.2547 59.2738C35.1777 61.8686 36.4779 64.1112 38.1555 66.0018C40.2969 68.2528 42.8043 69.8814 45.6781 70.8878C48.5519 71.8942 51.4885 72.1326 54.4883 71.6032C57.8727 71.0058 60.8833 69.638 63.5205 67.4996C65.7185 65.685 67.2209 63.6502 68.0277 61.395C68.3427 60.5144 69.1733 59.8816 70.1013 59.9704L78.1815 60.7426C79.3065 60.8502 80.0721 61.9486 79.6837 63.0138C78.7745 65.5088 77.4279 67.884 75.6437 70.1396C73.4369 72.919 70.6483 75.323 67.2783 77.3518C63.8945 79.3034 60.0491 80.6592 55.7417 81.4194ZM31.6869 46.7182C31.6935 47.7978 32.6927 48.564 33.7513 48.3772L65.3467 42.8006C66.4053 42.6138 67.0827 41.5514 66.7155 40.5362C65.7829 37.957 64.4525 35.7592 62.7245 33.9428C60.6603 31.6784 58.1911 30.0428 55.3175 29.0366C52.5205 28.0166 49.5453 27.7848 46.3917 28.3416C43.3151 28.8846 40.5985 30.1208 38.2419 32.0504C35.9623 33.9662 34.2393 36.3416 33.0731 39.1762C32.1323 41.4636 31.6701 43.9776 31.6869 46.7182Z"
      fill="#F7F7F7" />
  </g>
  <defs>
    <linearGradient id="paint0_linear_103_7013" x1="50" y1="0" x2="50" y2="100"
      gradientUnits="userSpaceOnUse">
      <stop stop-color="#292929" />
      <stop offset="1" stop-color="#1A1A1A" stop-opacity="0" />
    </linearGradient>
    <clipPath id="clip0_103_7013">
      <rect width="100" height="100" fill="white" />
    </clipPath>
  </defs>
</svg>