<svg width="100" height="100" viewBox="0 0 100 100" fill="white"
  xmlns="http://www.w3.org/2000/svg">
  <path d="M11 75.035V24.965C11 22.2229 13.2269 20 15.974 20H55.5137C58.2607 20 60.4876 22.2229 60.4876 24.965V75.035C60.4876 77.7771 58.2607 80 55.5137 80H15.974C13.2269 80 11 77.7771 11 75.035Z"/>
  <path d="M88 24.965V75.035C88 77.7771 85.7731 80 83.026 80L73.49 80C70.7429 80 68.516 77.7771 68.516 75.035V24.965C68.516 22.2229 70.7429 20 73.49 20H83.026C85.7731 20 88 22.2229 88 24.965Z"/>
</svg>
