<svg width="100" height="100" viewBox="0 0 100 100" fill="#d1d1d1"
  xmlns="http://www.w3.org/2000/svg">
  <path fill-rule="evenodd" clip-rule="evenodd" d="M82 58.6254C82 56.7614 80.4919 55.2504 78.6316 55.2504H68.2046C67.3513 55.2504 66.6856 54.5107 66.7742 53.6609L67.5684 46.0402C67.6448 45.3067 68.2623 44.7496 68.9988 44.7496H78.6316C80.4919 44.7496 82 43.2386 82 41.3746V36.1254C82 34.2614 80.4919 32.7504 78.6316 32.7504H70.55C69.6967 32.7504 69.031 32.0107 69.1196 31.1609L70.5197 17.7255C70.7273 15.7338 69.1685 14.0002 67.17 14H61.9474C60.3306 14.0002 58.9587 15.1475 58.6458 16.707L58.5976 17.0245L57.0929 31.4599C57.0164 32.1933 56.3989 32.7504 55.6624 32.7504H48.2342C47.3809 32.7504 46.7152 32.0107 46.8038 31.1609L48.2039 17.7255C48.4115 15.7338 46.8527 14.0002 44.8542 14H39.6327C38.0157 14 36.6429 15.1473 36.33 16.707L36.2818 17.0245L34.7771 31.4599C34.7006 32.1933 34.0831 32.7504 33.3466 32.7504H21.3684C19.5081 32.7504 18 34.2614 18 36.1254V41.3746C18 43.2386 19.5081 44.7496 21.3684 44.7496H31.7954C32.6487 44.7496 33.3144 45.4893 33.2258 46.3391L32.4316 53.9598C32.3552 54.6933 31.7377 55.2504 31.0012 55.2504H21.3684C19.5081 55.2504 18 56.7614 18 58.6254V63.8746C18 65.7386 19.5081 67.2496 21.3684 67.2496H29.45C30.3033 67.2496 30.969 67.9893 30.8804 68.8391L29.4803 82.2745C29.2727 84.2662 30.8314 85.9999 32.83 86H38.0515C39.7764 86 41.2232 84.6943 41.4024 82.9755L42.9071 68.5401C42.9836 67.8067 43.6011 67.2496 44.3376 67.2496H51.7658C52.6191 67.2496 53.2848 67.9893 53.1962 68.8391L51.7961 82.2745C51.5885 84.2662 53.1473 85.9998 55.1458 86H60.3684C62.0931 85.9998 63.539 84.6942 63.7182 82.9755L65.2229 68.5401C65.2994 67.8067 65.9169 67.2496 66.6534 67.2496H78.6316C80.4919 67.2496 82 65.7386 82 63.8746V58.6254ZM42.9309 57.4942C42.4907 57.4493 42.1302 57.1508 41.9883 56.7531C41.9866 56.7484 41.985 56.7436 41.9834 56.7389L41.9811 56.7323C41.9317 56.5847 41.9122 56.4241 41.9295 56.2581L43.2586 43.5081C43.3183 42.9352 43.8003 42.5 44.3753 42.5H56.9538C57.62 42.5 58.1397 43.0779 58.0705 43.7419L56.7414 56.4919C56.6817 57.0648 56.1997 57.5 55.6247 57.5H43.0462C43.0073 57.5 42.9688 57.498 42.9309 57.4942Z"/>
</svg>
