<svg width="100" height="100" viewBox="0 0 100 100" fill="white"
  xmlns="http://www.w3.org/2000/svg">
  <path fill-rule="evenodd" clip-rule="evenodd" d="M44.4742 56.2381L44.3826 56.2335C44.0287 56.1975 43.7396 55.9553 43.6296 55.6341C43.5904 55.5169 43.5731 55.3842 43.5868 55.2525L44.643 45.1334C44.6904 44.6787 45.0735 44.3333 45.5304 44.3333H55.5258C56.0552 44.3333 56.4682 44.792 56.4132 45.3189L55.357 55.438C55.3096 55.8927 54.9265 56.2381 54.4696 56.2381H44.4742Z"/>
  <path fill-rule="evenodd" clip-rule="evenodd" d="M0 50C0 77.6142 22.3858 100 50 100C77.6142 100 100 77.6142 100 50C100 22.3858 77.6142 0 50 0C22.3858 0 0 22.3858 0 50ZM75.4286 57.1312C75.4286 55.6519 74.2302 54.4527 72.7519 54.4527H64.4662C63.7881 54.4527 63.2591 53.8656 63.3295 53.1912L63.9606 47.143C64.0213 46.5609 64.512 46.1188 65.0973 46.1188H72.7519C74.2302 46.1188 75.4286 44.9195 75.4286 43.4402V39.2741C75.4286 37.7948 74.2302 36.5955 72.7519 36.5955H66.3299C65.6518 36.5955 65.1229 36.0085 65.1932 35.3341L66.3059 24.671C66.4708 23.0903 65.2321 21.7145 63.644 21.7143H59.4939C58.2091 21.7145 57.119 22.625 56.8703 23.8627L56.832 24.1147L55.6363 35.5713C55.5755 36.1534 55.0849 36.5955 54.4996 36.5955H48.5968C47.9187 36.5955 47.3898 36.0085 47.4602 35.3341L48.5728 24.671C48.7377 23.0903 47.499 21.7145 45.9109 21.7143H41.7617C40.4767 21.7143 39.3859 22.6249 39.1373 23.8627L39.0989 24.1147L37.9032 35.5713C37.8425 36.1534 37.3518 36.5955 36.7665 36.5955H27.2481C25.7698 36.5955 24.5714 37.7948 24.5714 39.2741V43.4402C24.5714 44.9195 25.7698 46.1188 27.2481 46.1188H35.5338C36.2119 46.1188 36.7409 46.7058 36.6705 47.3802L36.0394 53.4284C35.9787 54.0105 35.488 54.4527 34.9027 54.4527H27.2481C25.7698 54.4527 24.5714 55.6519 24.5714 57.1312V61.2973C24.5714 62.7767 25.7698 63.9759 27.2481 63.9759H33.6701C34.3482 63.9759 34.8771 64.5629 34.8068 65.2374L33.6941 75.9004C33.5292 77.4811 34.7678 78.857 36.356 78.8571H40.5052C41.8759 78.8571 43.0256 77.8209 43.168 76.4567L44.3637 65.0001C44.4245 64.418 44.9151 63.9759 45.5004 63.9759H51.4032C52.0813 63.9759 52.6102 64.5629 52.5398 65.2374L51.4272 75.9004C51.2623 77.4811 52.501 78.857 54.0891 78.8571H58.2392C59.6097 78.8569 60.7587 77.8208 60.9011 76.4567L62.0968 65.0001C62.1575 64.418 62.6482 63.9759 63.2335 63.9759H72.7519C74.2302 63.9759 75.4286 62.7767 75.4286 61.2973V57.1312Z" />
</svg>
