<svg width="30" height="30" viewBox="0 0 30 30" fill="none" xmlns="http://www.w3.org/2000/svg">
  <g clip-path="url(#clip0_75_567)">
    <path
      d="M24 0H6C2.68629 0 0 2.68629 0 6V24C0 27.3137 2.68629 30 6 30H24C27.3137 30 30 27.3137 30 24V6C30 2.68629 27.3137 0 24 0Z"
      fill="#1A1A1A" />
    <path
      d="M24 0H6C2.68629 0 0 2.68629 0 6V24C0 27.3137 2.68629 30 6 30H24C27.3137 30 30 27.3137 30 24V6C30 2.68629 27.3137 0 24 0Z"
      fill="url(#paint0_linear_75_567)" fill-opacity="0.5" />
    <path
      d="M21.5082 19.3604C21.5082 18.8467 21.0642 18.4303 20.5165 18.4303H11.095C10.5473 18.4303 10.1033 18.8467 10.1033 19.3604V20.6395C10.1033 21.1533 10.5473 21.5698 11.095 21.5698H20.5165C21.0642 21.5698 21.5082 21.1533 21.5082 20.6395V19.3604ZM22.5 20.6395C22.5 21.667 21.612 22.5 20.5165 22.5H11.095C9.99957 22.5 9.11157 21.667 9.11157 20.6395V19.3604C9.11157 18.3329 9.99957 17.5 11.095 17.5H20.5165C21.612 17.5 22.5 18.3329 22.5 19.3604V20.6395Z"
      fill="#F7F7F7" />
    <path
      d="M19.8967 14.3605C19.8967 13.8467 19.4527 13.4302 18.905 13.4302H9.48348C8.93574 13.4302 8.49174 13.8467 8.49174 14.3605V15.6395C8.49174 16.1533 8.93574 16.5698 9.48348 16.5698H18.905C19.4527 16.5698 19.8967 16.1533 19.8967 15.6395V14.3605ZM20.8885 15.6395C20.8885 16.667 20.0004 17.5 18.905 17.5H9.48348C8.38806 17.5 7.5 16.667 7.5 15.6395V14.3605C7.5 13.333 8.38806 12.5 9.48348 12.5H18.905C20.0004 12.5 20.8885 13.333 20.8885 14.3605V15.6395Z"
      fill="#F7F7F7" />
    <path
      d="M21.5082 9.36048C21.5082 8.8467 21.0642 8.43024 20.5165 8.43024H11.095C10.5473 8.43024 10.1033 8.8467 10.1033 9.36048V10.6396C10.1033 11.1533 10.5473 11.5697 11.095 11.5697H20.5165C21.0642 11.5697 21.5082 11.1533 21.5082 10.6396V9.36048ZM22.5 10.6396C22.5 11.6671 21.612 12.5 20.5165 12.5H11.095C9.99957 12.5 9.11157 11.6671 9.11157 10.6396V9.36048C9.11157 8.33298 9.99957 7.5 11.095 7.5H20.5165C21.612 7.5 22.5 8.33298 22.5 9.36048V10.6396Z"
      fill="#F7F7F7" />
  </g>
  <defs>
    <linearGradient id="paint0_linear_75_567" x1="15" y1="0" x2="15" y2="30"
      gradientUnits="userSpaceOnUse">
      <stop stop-color="#292929" />
      <stop offset="1" stop-color="#1A1A1A" stop-opacity="0" />
    </linearGradient>
    <clipPath id="clip0_75_567">
      <rect width="30" height="30" fill="white" />
    </clipPath>
  </defs>
</svg>