<svg width="30" height="30" viewBox="0 0 30 30" fill="#0388FC" xmlns="http://www.w3.org/2000/svg">
  <path fill-rule="evenodd" clip-rule="evenodd"
    d="M1.38125 10.2673C0.0937498 7.78528 0.491196 4.65599 2.57359 2.57359C4.65599 0.491195 7.78528 0.0937488 10.2673 1.38125C13.143 -0.460418 16.857 -0.460417 19.7327 1.38125C22.2147 0.0937489 25.344 0.491195 27.4264 2.57359C29.5088 4.65599 29.9063 7.78528 28.6187 10.2673C30.4604 13.143 30.4604 16.857 28.6187 19.7327C29.9063 22.2147 29.5088 25.344 27.4264 27.4264C25.344 29.5088 22.2147 29.9062 19.7327 28.6187C16.857 30.4604 13.143 30.4604 10.2673 28.6187C7.78528 29.9062 4.65599 29.5088 2.57359 27.4264C0.491196 25.344 0.0937498 22.2147 1.38125 19.7327C-0.460418 16.857 -0.460418 13.143 1.38125 10.2673ZM16.8 6H13.2C9.22355 6 6 9.22355 6 13.2V16.8C6 20.7764 9.22355 24 13.2 24H16.8C20.7765 24 24 20.7764 24 16.8V13.2C24 9.22355 20.7765 6 16.8 6Z" />
  <path
    d="M20 15C20 17.7614 17.7614 20 15 20C12.2386 20 10 17.7614 10 15C10 12.2386 12.2386 10 15 10C17.7614 10 20 12.2386 20 15Z" />
</svg>