<svg width="50" height="50" viewBox="0 0 50 50" fill="none" xmlns="http://www.w3.org/2000/svg">
  <g clip-path="url(#clip0_102_6999)">
    <path
      d="M50 25C50 11.1929 38.8071 0 25 0C11.1929 0 0 11.1929 0 25C0 38.8071 11.1929 50 25 50C38.8071 50 50 38.8071 50 25Z"
      fill="#1A1A1A" />
    <path
      d="M50 25C50 11.1929 38.8071 0 25 0C11.1929 0 0 11.1929 0 25C0 38.8071 11.1929 50 25 50C38.8071 50 50 38.8071 50 25Z"
      fill="url(#paint0_linear_102_6999)" fill-opacity="0.5" />
    <path
      d="M27.8709 40.7097C25.5249 41.1238 23.319 41.0949 21.2532 40.623C19.1806 40.1126 17.3261 39.2649 15.6899 38.0799C14.0468 36.8563 12.6966 35.3819 11.6392 33.6566C10.5751 31.8927 9.8558 29.9484 9.48154 27.8237C8.97797 24.9651 9.1498 22.2263 9.99703 19.6072C10.8828 16.9813 12.3727 14.7467 14.4669 12.9033C16.5995 11.0532 19.2426 9.84977 22.3962 9.29317C25.5883 8.72977 28.4673 8.97841 31.0334 10.0391C33.5927 11.0611 35.6952 12.6418 37.341 14.781C39.0252 16.9134 40.1089 19.351 40.592 22.0938C40.6669 22.5187 40.7813 23.3807 40.7953 23.5049C40.8411 23.9128 40.5498 24.4911 40.1474 24.5621L17.8143 28.5039C17.285 28.5973 16.9465 29.1283 17.1274 29.6369C17.5889 30.9343 18.239 32.0556 19.0778 33.0009C20.1485 34.1264 21.4022 34.9407 22.8391 35.4439C24.276 35.9471 25.7443 36.0663 27.2442 35.8016C28.9364 35.5029 30.4417 34.819 31.7603 33.7498C32.8593 32.8425 33.6105 31.8251 34.0139 30.6975C34.1714 30.2572 34.5867 29.9408 35.0507 29.9852L39.0908 30.3713C39.6533 30.4251 40.0361 30.9743 39.8419 31.5069C39.3873 32.7544 38.714 33.942 37.8219 35.0698C36.7185 36.4595 35.3242 37.6615 33.6392 38.6759C31.9473 39.6517 30.0246 40.3296 27.8709 40.7097ZM15.8435 23.3591C15.8468 23.8989 16.3464 24.282 16.8757 24.1886L32.6734 21.4003C33.2027 21.3069 33.5414 20.7757 33.3578 20.2681C32.8915 18.9785 32.2263 17.8796 31.3623 16.9714C30.3302 15.8392 29.0956 15.0214 27.6588 14.5183C26.2603 14.0083 24.7727 13.8924 23.1959 14.1708C21.6576 14.4423 20.2993 15.0604 19.121 16.0252C17.9812 16.9831 17.1197 18.1708 16.5366 19.5881C16.0662 20.7318 15.8351 21.9888 15.8435 23.3591Z"
      fill="#F7F7F7" />
  </g>
  <defs>
    <linearGradient id="paint0_linear_102_6999" x1="25" y1="0" x2="25" y2="50"
      gradientUnits="userSpaceOnUse">
      <stop stop-color="#292929" />
      <stop offset="1" stop-color="#1A1A1A" stop-opacity="0" />
    </linearGradient>
    <clipPath id="clip0_102_6999">
      <rect width="50" height="50" fill="white" />
    </clipPath>
  </defs>
</svg>